<svg id="svg" version="1.1" xmlns="http://www.w3.org/2000/svg" xmlns:xlink="http://www.w3.org/1999/xlink" width="400" height="356.25" viewBox="0, 0, 400,356.25"><g id="svgg"><path id="path0" d="M189.844 26.609 C 82.467 43.195,27.035 164.429,85.146 255.591 C 165.551 381.727,359.998 324.712,359.998 175.000 C 359.998 82.563,279.889 12.701,189.844 26.609 M247.610 35.978 C 351.824 63.659,390.074 192.403,317.657 271.749 C 243.594 352.898,108.623 323.641,74.979 219.145 C 40.434 111.851,139.105 7.157,247.610 35.978 M210.772 163.672 C 210.681 178.066,210.734 191.777,210.890 194.141 C 211.292 200.238,209.609 199.574,200.000 189.844 C 191.232 180.965,187.500 179.227,187.500 184.021 C 187.500 186.894,210.591 210.938,213.350 210.938 C 216.159 210.938,241.051 184.766,239.945 182.976 C 237.977 179.792,235.299 181.199,226.217 190.185 L 217.188 199.121 217.188 170.782 C 217.188 141.262,216.727 137.500,213.114 137.500 C 211.347 137.500,210.906 142.422,210.772 163.672 " stroke="none" fill="#000000" fill-rule="evenodd"></path></g></svg>